<svg xmlns="http://www.w3.org/2000/svg" xmlns:xlink="http://www.w3.org/1999/xlink" width="500" zoomAndPan="magnify" viewBox="0 0 375 374.999991" height="500" preserveAspectRatio="xMidYMid meet" version="1.0"><defs><g/></defs><path fill="#65c6f1" d="M 205.363281 367.773438 C 240.609375 367.226562 347.929688 360.925781 353.730469 354.984375 C 359.535156 349.046875 326.882812 359.171875 313.214844 353.835938 C 299.546875 348.5 223.652344 352.21875 225.296875 348.230469 C 226.945312 344.238281 257.171875 348.121094 276.949219 344.90625 C 296.726562 341.6875 232.707031 337.652344 246.394531 335.996094 C 260.089844 334.335938 350.875 340.144531 360.550781 335.25 C 370.222656 330.355469 284.757812 333.136719 266.75 326.914062 C 248.738281 320.695312 236.46875 329.640625 226.992188 322.871094 C 217.511719 316.101562 239.761719 321.660156 272.933594 319.523438 C 306.101562 317.390625 369.253906 322.648438 375.9375 315.613281 C 381.257812 310.011719 267.480469 308.625 220.929688 308.296875 C 207.144531 308.195312 193.347656 308.824219 179.621094 310.179688 C 144.230469 313.671875 74.835938 321.738281 39.144531 334.1875 C -10.039062 351.335938 113.015625 326.324219 123.390625 332.257812 C 133.765625 338.195312 152.769531 330.367188 145.0625 336.304688 C 137.359375 342.238281 75.953125 341.914062 67.074219 344.429688 C 58.195312 346.941406 104.335938 346.691406 112.492188 347.722656 C 120.648438 348.75 155.964844 342.980469 154.34375 347.355469 C 152.722656 351.738281 47.199219 353.476562 46.976562 357.375 C 46.75 361.277344 65.605469 358.507812 69.621094 361.746094 C 73.636719 364.984375 159.953125 368.472656 205.363281 367.773438 " fill-opacity="1" fill-rule="nonzero"/><path fill="#ef6400" d="M 211.105469 211.296875 L 202.46875 213.46875 L 241.335938 212.109375 L 253.855469 213.46875 L 279.335938 213.46875 L 288.40625 214.734375 L 304.570312 214.734375 C 296.757812 274.253906 245.777344 320.199219 184.050781 320.199219 C 123.871094 320.199219 73.90625 276.53125 64.199219 219.195312 L 72.1875 219.195312 L 76.746094 218.484375 L 89.5625 218.484375 L 95.859375 217.726562 L 115.40625 218.484375 L 111.0625 217.269531 L 90.429688 215.445312 L 88.476562 214.433594 L 73.707031 213.316406 L 71.101562 212.101562 L 63.117188 211.171875 C 62.703125 207.105469 62.492188 202.984375 62.492188 198.808594 C 62.492188 183.40625 65.367188 168.667969 70.609375 155.109375 L 95.023438 155.109375 L 103.496094 154.402344 L 127.292969 154.402344 L 138.992188 153.640625 L 175.296875 154.402344 L 167.230469 153.1875 L 128.910156 151.363281 L 125.277344 150.351562 L 97.847656 149.234375 L 93.007812 148.019531 L 74.171875 146.835938 C 93.667969 105.800781 135.542969 77.421875 184.050781 77.421875 C 218.691406 77.421875 249.949219 91.890625 272.089844 115.113281 L 257.746094 116.472656 L 254.964844 118.28125 L 225.644531 121.535156 L 219.476562 123.707031 L 247.25 122.351562 L 256.199219 123.707031 L 274.410156 123.707031 L 280.476562 124.894531 C 296.238281 145.363281 305.605469 170.992188 305.605469 198.808594 C 305.605469 199.375 305.601562 199.933594 305.59375 200.496094 L 290.566406 202.066406 L 285.382812 204.238281 L 256.019531 206.230469 L 252.132812 208.039062 L 211.105469 211.296875 " fill-opacity="1" fill-rule="nonzero"/><path fill="#000000" d="M 113.28125 260.371094 L 95.492188 254.726562 C 95.277344 254.660156 95.296875 254.347656 95.519531 254.3125 L 101.964844 253.25 C 102.1875 253.214844 102.210938 252.910156 102 252.835938 L 88.238281 248.167969 C 88.015625 248.089844 88.058594 247.765625 88.292969 247.75 L 94.710938 247.296875 C 94.945312 247.28125 94.988281 246.953125 94.765625 246.882812 L 82.015625 242.664062 C 81.808594 242.59375 81.820312 242.300781 82.03125 242.25 L 89.125 240.539062 C 89.347656 240.484375 89.34375 240.167969 89.121094 240.121094 L 76.738281 237.355469 C 76.507812 237.304688 76.515625 236.972656 76.75 236.9375 L 81.667969 236.125 C 81.890625 236.089844 81.914062 235.785156 81.703125 235.714844 L 71.519531 232.300781 C 71.292969 232.226562 71.339844 231.894531 71.574219 231.882812 L 76.550781 231.640625 C 76.769531 231.632812 76.832031 231.335938 76.636719 231.238281 L 67.714844 226.761719 C 67.515625 226.65625 67.585938 226.351562 67.816406 226.355469 L 72.644531 226.386719 C 72.871094 226.390625 72.945312 226.082031 72.742188 225.980469 L 61.898438 220.464844 C 61.894531 220.460938 61.890625 220.460938 61.890625 220.460938 L 54.742188 216.328125 C 54.59375 216.242188 54.40625 216.355469 54.417969 216.527344 C 54.703125 221.109375 55.644531 225.613281 57.210938 229.878906 C 58.820312 234.273438 61.09375 238.421875 63.984375 242.164062 C 72.121094 252.699219 86.945312 263.269531 113.234375 260.789062 C 113.46875 260.769531 113.503906 260.441406 113.28125 260.371094 " fill-opacity="1" fill-rule="nonzero"/><path fill="#000000" d="M 69.328125 298.082031 L 59.558594 279.675781 C 59.441406 279.449219 59.703125 279.222656 59.910156 279.367188 L 65.882812 283.558594 C 66.085938 283.703125 66.347656 283.476562 66.234375 283.253906 L 58.914062 268.773438 C 58.796875 268.539062 59.085938 268.3125 59.285156 268.484375 L 64.761719 273.140625 C 64.960938 273.308594 65.25 273.082031 65.128906 272.847656 L 58.265625 259.515625 C 58.152344 259.304688 58.394531 259.078125 58.601562 259.203125 L 65.601562 263.378906 C 65.820312 263.511719 66.0625 263.257812 65.925781 263.046875 L 58.210938 251.164062 C 58.070312 250.941406 58.335938 250.683594 58.554688 250.832031 L 63.109375 254.035156 C 63.316406 254.179688 63.574219 253.953125 63.460938 253.730469 L 58.011719 243.046875 C 57.890625 242.8125 58.1875 242.582031 58.386719 242.757812 L 62.542969 246.457031 C 62.726562 246.621094 63.007812 246.433594 62.929688 246.199219 L 59.320312 235.65625 C 59.238281 235.417969 59.539062 235.230469 59.71875 235.410156 L 63.542969 239.210938 C 63.722656 239.390625 64.023438 239.203125 63.941406 238.964844 L 59.613281 226.089844 C 59.613281 226.082031 59.613281 226.078125 59.609375 226.074219 L 57.148438 217.191406 C 57.097656 217.007812 56.859375 216.953125 56.734375 217.097656 C 53.367188 220.976562 50.59375 225.304688 48.496094 229.933594 C 46.335938 234.699219 44.898438 239.78125 44.269531 245.027344 C 42.507812 259.789062 46.046875 279.808594 68.960938 298.378906 C 69.164062 298.546875 69.449219 298.3125 69.328125 298.082031 " fill-opacity="1" fill-rule="nonzero"/><path fill="#000000" d="M 12.25 285.117188 L 17.476562 265.042969 C 17.542969 264.800781 17.886719 264.808594 17.941406 265.054688 L 19.503906 272.140625 C 19.554688 272.386719 19.898438 272.394531 19.964844 272.15625 L 24.347656 256.609375 C 24.417969 256.359375 24.785156 256.386719 24.816406 256.644531 L 25.699219 263.742188 C 25.730469 264 26.097656 264.027344 26.167969 263.777344 L 30.105469 249.375 C 30.167969 249.148438 30.496094 249.144531 30.5625 249.375 L 32.890625 257.140625 C 32.960938 257.382812 33.3125 257.363281 33.351562 257.113281 L 35.695312 243.210938 C 35.738281 242.953125 36.109375 242.941406 36.164062 243.199219 L 37.355469 248.609375 C 37.410156 248.851562 37.753906 248.859375 37.820312 248.621094 L 41.015625 237.121094 C 41.085938 236.867188 41.457031 236.898438 41.480469 237.160156 L 42.042969 242.664062 C 42.070312 242.910156 42.402344 242.960938 42.5 242.734375 L 46.953125 232.574219 C 47.054688 232.34375 47.398438 232.40625 47.410156 232.65625 L 47.660156 238.019531 C 47.671875 238.273438 48.015625 238.335938 48.117188 238.105469 L 53.613281 225.746094 C 53.617188 225.742188 53.617188 225.738281 53.621094 225.734375 L 57.792969 217.558594 C 57.882812 217.390625 57.742188 217.191406 57.554688 217.210938 C 52.472656 217.796875 47.519531 219.113281 42.859375 221.101562 C 38.070312 223.148438 33.585938 225.910156 29.589844 229.34375 C 18.355469 238.992188 7.464844 256.066406 11.78125 285.089844 C 11.820312 285.347656 12.183594 285.367188 12.25 285.117188 " fill-opacity="1" fill-rule="nonzero"/><path fill="#000000" d="M 121.964844 224.066406 L 105.011719 216.265625 C 104.804688 216.171875 104.613281 216.417969 104.75 216.59375 L 108.800781 221.714844 C 108.9375 221.890625 108.75 222.132812 108.542969 222.042969 L 95.226562 216.234375 C 95.011719 216.144531 94.820312 216.410156 94.984375 216.582031 L 99.421875 221.234375 C 99.585938 221.402344 99.394531 221.671875 99.179688 221.578125 L 86.914062 216.113281 C 86.714844 216.027344 86.527344 216.25 86.648438 216.429688 L 90.734375 222.46875 C 90.863281 222.65625 90.644531 222.886719 90.449219 222.777344 L 79.433594 216.484375 C 79.230469 216.367188 79.011719 216.621094 79.160156 216.804688 L 82.25 220.710938 C 82.386719 220.886719 82.199219 221.132812 81.992188 221.042969 L 72.164062 216.710938 C 71.949219 216.613281 71.757812 216.890625 71.925781 217.058594 L 75.441406 220.582031 C 75.59375 220.738281 75.441406 221 75.230469 220.941406 L 65.617188 218.246094 C 65.398438 218.183594 65.246094 218.457031 65.417969 218.609375 L 69.007812 221.835938 C 69.175781 221.988281 69.027344 222.261719 68.808594 222.203125 L 57.070312 218.984375 C 57.066406 218.980469 57.066406 218.980469 57.0625 218.980469 L 48.992188 217.222656 C 48.824219 217.1875 48.761719 216.980469 48.886719 216.859375 C 52.191406 213.664062 55.921875 210.972656 59.960938 208.871094 C 64.113281 206.707031 68.589844 205.167969 73.253906 204.347656 C 86.375 202.042969 104.460938 204.203125 122.214844 223.726562 C 122.371094 223.898438 122.175781 224.164062 121.964844 224.066406 " fill-opacity="1" fill-rule="nonzero"/><path fill="#000000" d="M 114.929688 166.628906 L 95.292969 173.65625 C 95.054688 173.742188 95.09375 174.085938 95.34375 174.117188 L 102.585938 175.039062 C 102.832031 175.074219 102.875 175.414062 102.640625 175.503906 L 87.460938 181.28125 C 87.21875 181.371094 87.277344 181.734375 87.539062 181.742188 L 94.726562 181.984375 C 94.988281 181.996094 95.046875 182.359375 94.800781 182.449219 L 80.734375 187.679688 C 80.507812 187.761719 80.535156 188.089844 80.769531 188.136719 L 88.761719 189.761719 C 89.011719 189.8125 89.023438 190.164062 88.777344 190.230469 L 75.058594 193.820312 C 74.804688 193.886719 74.828125 194.257812 75.089844 194.289062 L 80.617188 194.988281 C 80.867188 195.023438 80.90625 195.367188 80.671875 195.453125 L 69.4375 199.679688 C 69.1875 199.773438 69.253906 200.140625 69.519531 200.144531 L 75.082031 200.207031 C 75.332031 200.210938 75.414062 200.539062 75.195312 200.660156 L 65.417969 206.023438 C 65.195312 206.144531 65.289062 206.484375 65.542969 206.472656 L 70.9375 206.238281 C 71.1875 206.226562 71.285156 206.5625 71.0625 206.6875 L 59.175781 213.289062 C 59.171875 213.292969 59.171875 213.292969 59.164062 213.296875 L 51.351562 218.203125 C 51.191406 218.304688 50.976562 218.1875 50.984375 217.992188 C 51.113281 212.863281 51.980469 207.796875 53.558594 202.964844 C 55.175781 197.992188 57.542969 193.265625 60.621094 188.96875 C 69.277344 176.875 85.398438 164.460938 114.863281 166.164062 C 115.125 166.175781 115.175781 166.539062 114.929688 166.628906 " fill-opacity="1" fill-rule="nonzero"/><path fill="#000000" d="M 64.007812 137.800781 L 54.328125 156.152344 C 54.207031 156.375 54.46875 156.605469 54.675781 156.457031 L 60.613281 152.269531 C 60.816406 152.125 61.074219 152.347656 60.964844 152.570312 L 53.710938 167.007812 C 53.59375 167.242188 53.882812 167.464844 54.082031 167.296875 L 59.519531 162.644531 C 59.71875 162.476562 60.007812 162.703125 59.890625 162.9375 L 53.085938 176.222656 C 52.976562 176.4375 53.214844 176.660156 53.421875 176.535156 L 60.382812 172.359375 C 60.601562 172.230469 60.84375 172.480469 60.707031 172.695312 L 53.058594 184.542969 C 52.914062 184.761719 53.179688 185.019531 53.394531 184.867188 L 57.925781 181.671875 C 58.128906 181.527344 58.390625 181.75 58.277344 181.972656 L 52.878906 192.625 C 52.757812 192.859375 53.050781 193.085938 53.25 192.910156 L 57.378906 189.21875 C 57.5625 189.054688 57.84375 189.242188 57.765625 189.472656 L 54.199219 199.976562 C 54.117188 200.21875 54.414062 200.402344 54.59375 200.222656 L 58.394531 196.429688 C 58.574219 196.25 58.871094 196.433594 58.789062 196.675781 L 54.511719 209.503906 C 54.511719 209.507812 54.511719 209.511719 54.511719 209.515625 L 52.078125 218.367188 C 52.027344 218.550781 51.792969 218.605469 51.667969 218.460938 C 48.308594 214.605469 45.53125 210.304688 43.433594 205.703125 C 41.273438 200.964844 39.828125 195.90625 39.191406 190.683594 C 37.398438 175.992188 40.871094 156.046875 63.640625 137.503906 C 63.84375 137.339844 64.128906 137.570312 64.007812 137.800781 " fill-opacity="1" fill-rule="nonzero"/><path fill="#000000" d="M -2.558594 226.121094 L 10.765625 219.035156 C 10.929688 218.945312 11.09375 219.136719 10.992188 219.285156 L 7.960938 223.609375 C 7.859375 223.757812 8.023438 223.945312 8.183594 223.863281 L 18.667969 218.550781 C 18.835938 218.464844 19 218.675781 18.878906 218.816406 L 15.511719 222.785156 C 15.390625 222.925781 15.554688 223.136719 15.726562 223.050781 L 25.375 218.066406 C 25.53125 217.988281 25.695312 218.160156 25.605469 218.308594 L 22.585938 223.378906 C 22.492188 223.535156 22.675781 223.710938 22.832031 223.609375 L 31.433594 218.019531 C 31.59375 217.914062 31.78125 218.105469 31.671875 218.261719 L 29.359375 221.558594 C 29.253906 221.710938 29.417969 221.898438 29.578125 221.816406 L 37.3125 217.859375 C 37.484375 217.773438 37.652344 217.988281 37.523438 218.128906 L 34.851562 221.140625 C 34.734375 221.273438 34.867188 221.476562 35.039062 221.417969 L 42.671875 218.796875 C 42.847656 218.734375 42.980469 218.949219 42.855469 219.082031 L 40.105469 221.851562 C 39.976562 221.984375 40.109375 222.199219 40.285156 222.140625 L 49.609375 218.992188 C 49.613281 218.992188 49.617188 218.988281 49.617188 218.988281 L 56.054688 217.195312 C 56.1875 217.15625 56.226562 216.984375 56.121094 216.894531 C 53.304688 214.46875 50.164062 212.46875 46.804688 210.960938 C 43.347656 209.40625 39.660156 208.375 35.855469 207.929688 C 25.152344 206.675781 10.648438 209.265625 -2.777344 225.859375 C -2.894531 226.007812 -2.726562 226.210938 -2.558594 226.121094 " fill-opacity="1" fill-rule="nonzero"/><path fill="#000000" d="M 57.691406 223.632812 C 57.691406 223.632812 57.851562 223.65625 58.160156 223.695312 C 58.308594 223.71875 58.492188 223.746094 58.710938 223.773438 C 58.941406 223.808594 59.207031 223.851562 59.507812 223.894531 C 60.710938 224.089844 62.492188 224.390625 64.75 224.878906 C 67.011719 225.347656 69.742188 226.011719 72.847656 226.863281 C 75.957031 227.707031 79.421875 228.8125 83.164062 230.101562 C 84.09375 230.441406 85.039062 230.792969 86.007812 231.148438 C 86.488281 231.328125 86.976562 231.507812 87.464844 231.6875 C 87.953125 231.882812 88.445312 232.078125 88.9375 232.277344 C 89.925781 232.675781 90.929688 233.082031 91.949219 233.492188 C 92.957031 233.933594 93.980469 234.382812 95.015625 234.835938 C 95.53125 235.0625 96.054688 235.289062 96.578125 235.519531 C 97.09375 235.769531 97.613281 236.015625 98.136719 236.265625 C 99.183594 236.765625 100.238281 237.269531 101.308594 237.777344 C 102.359375 238.324219 103.421875 238.875 104.492188 239.429688 C 105.03125 239.710938 105.566406 239.988281 106.109375 240.269531 C 106.636719 240.566406 107.171875 240.867188 107.707031 241.167969 C 108.773438 241.773438 109.851562 242.378906 110.9375 242.988281 C 112.007812 243.628906 113.066406 244.296875 114.144531 244.953125 C 116.3125 246.230469 118.394531 247.710938 120.535156 249.117188 C 121.074219 249.464844 121.589844 249.847656 122.109375 250.226562 C 122.628906 250.605469 123.148438 250.984375 123.667969 251.363281 L 125.230469 252.503906 C 125.753906 252.886719 126.28125 253.257812 126.78125 253.667969 C 127.792969 254.472656 128.804688 255.28125 129.820312 256.085938 L 131.335938 257.300781 L 132.804688 258.574219 L 135.730469 261.117188 C 136.226562 261.53125 136.6875 261.988281 137.152344 262.429688 L 138.550781 263.761719 C 139.480469 264.652344 140.421875 265.523438 141.328125 266.421875 C 142.214844 267.347656 143.09375 268.265625 143.96875 269.183594 C 144.410156 269.640625 144.847656 270.097656 145.28125 270.550781 L 145.933594 271.234375 L 146.554688 271.949219 C 147.375 272.894531 148.195312 273.835938 149.007812 274.769531 C 150.675781 276.605469 152.136719 278.578125 153.632812 280.457031 C 155.160156 282.3125 156.484375 284.28125 157.824219 286.160156 C 158.484375 287.109375 159.171875 288.019531 159.789062 288.964844 C 160.390625 289.917969 160.988281 290.863281 161.578125 291.792969 C 162.164062 292.71875 162.746094 293.632812 163.320312 294.53125 C 163.460938 294.757812 163.605469 294.980469 163.746094 295.203125 C 163.875 295.433594 164.003906 295.664062 164.132812 295.894531 C 164.390625 296.355469 164.648438 296.808594 164.902344 297.257812 C 165.914062 299.0625 166.914062 300.789062 167.828125 302.46875 C 168.683594 304.183594 169.503906 305.828125 170.285156 307.390625 C 170.671875 308.171875 171.050781 308.933594 171.421875 309.671875 C 171.75 310.429688 172.074219 311.167969 172.382812 311.882812 C 173.007812 313.308594 173.589844 314.640625 174.128906 315.878906 C 174.394531 316.496094 174.664062 317.078125 174.894531 317.652344 C 175.113281 318.230469 175.320312 318.78125 175.519531 319.308594 C 177.097656 323.488281 178 325.875 178 325.875 L 197.46875 318.066406 C 197.46875 318.066406 196.226562 315.492188 194.058594 311 C 193.789062 310.4375 193.5 309.847656 193.203125 309.226562 C 192.886719 308.617188 192.527344 307.984375 192.171875 307.320312 C 191.449219 306 190.667969 304.574219 189.835938 303.046875 C 189.417969 302.289062 188.984375 301.503906 188.542969 300.695312 C 188.0625 299.90625 187.5625 299.097656 187.050781 298.261719 C 186.03125 296.601562 184.957031 294.859375 183.832031 293.039062 C 182.652344 291.253906 181.367188 289.429688 180.066406 287.53125 C 179.738281 287.054688 179.410156 286.578125 179.074219 286.097656 C 178.910156 285.855469 178.742188 285.617188 178.574219 285.371094 C 178.394531 285.136719 178.214844 284.902344 178.035156 284.664062 C 177.3125 283.722656 176.578125 282.761719 175.832031 281.785156 C 175.085938 280.816406 174.332031 279.835938 173.566406 278.839844 C 172.789062 277.851562 171.941406 276.902344 171.117188 275.917969 C 169.445312 273.964844 167.789062 271.9375 165.921875 270.03125 C 164.082031 268.097656 162.277344 266.078125 160.265625 264.214844 C 159.277344 263.265625 158.285156 262.3125 157.289062 261.351562 L 156.539062 260.636719 L 155.757812 259.949219 C 155.234375 259.492188 154.710938 259.035156 154.1875 258.574219 C 153.136719 257.65625 152.082031 256.734375 151.027344 255.8125 C 149.945312 254.917969 148.832031 254.058594 147.734375 253.175781 L 146.082031 251.863281 C 145.527344 251.425781 144.984375 250.972656 144.40625 250.570312 C 143.265625 249.746094 142.121094 248.917969 140.980469 248.089844 L 139.265625 246.847656 L 137.507812 245.679688 C 136.332031 244.90625 135.160156 244.132812 133.988281 243.359375 C 133.410156 242.964844 132.804688 242.613281 132.207031 242.253906 L 130.414062 241.175781 C 129.816406 240.816406 129.222656 240.457031 128.628906 240.101562 C 128.035156 239.742188 127.441406 239.382812 126.832031 239.058594 C 124.398438 237.75 122.035156 236.375 119.59375 235.207031 C 118.382812 234.609375 117.1875 234 115.988281 233.425781 C 114.777344 232.875 113.574219 232.332031 112.382812 231.789062 C 111.785156 231.523438 111.191406 231.253906 110.601562 230.988281 C 110 230.742188 109.40625 230.496094 108.808594 230.25 C 107.625 229.761719 106.449219 229.28125 105.285156 228.804688 C 104.105469 228.363281 102.941406 227.929688 101.792969 227.5 C 101.21875 227.289062 100.644531 227.074219 100.078125 226.863281 C 99.503906 226.671875 98.933594 226.480469 98.367188 226.289062 C 97.234375 225.90625 96.121094 225.53125 95.019531 225.164062 C 93.910156 224.824219 92.816406 224.496094 91.742188 224.167969 C 91.207031 224.003906 90.671875 223.84375 90.148438 223.683594 C 89.613281 223.539062 89.085938 223.398438 88.5625 223.257812 C 87.519531 222.972656 86.496094 222.695312 85.492188 222.425781 C 81.457031 221.421875 77.742188 220.589844 74.417969 219.996094 C 71.097656 219.394531 68.1875 218.957031 65.773438 218.675781 C 63.367188 218.375 61.457031 218.226562 60.144531 218.132812 C 59.816406 218.109375 59.523438 218.09375 59.273438 218.074219 C 59.011719 218.0625 58.789062 218.050781 58.613281 218.042969 C 58.273438 218.027344 58.09375 218.023438 58.09375 218.023438 L 57.691406 223.632812 " fill-opacity="1" fill-rule="nonzero"/><path fill="#000000" d="M 227.515625 116.980469 L 213.308594 99.011719 C 213.136719 98.796875 212.789062 98.953125 212.84375 99.226562 L 214.417969 107.082031 C 214.472656 107.351562 214.132812 107.511719 213.953125 107.300781 L 202.617188 93.535156 C 202.433594 93.3125 202.078125 93.5 202.160156 93.777344 L 204.421875 101.339844 C 204.507812 101.617188 204.144531 101.804688 203.964844 101.578125 L 193.585938 88.777344 C 193.417969 88.570312 193.085938 88.714844 193.117188 88.976562 L 194.222656 97.855469 C 194.257812 98.136719 193.894531 98.265625 193.738281 98.035156 L 185.191406 85.023438 C 185.035156 84.78125 184.65625 84.9375 184.714844 85.21875 L 185.917969 91.214844 C 185.972656 91.484375 185.628906 91.644531 185.453125 91.433594 L 177.113281 81.222656 C 176.929688 81 176.566406 81.195312 176.65625 81.472656 L 178.535156 87.285156 C 178.621094 87.539062 178.304688 87.742188 178.105469 87.558594 L 169.089844 79.265625 C 168.882812 79.074219 168.566406 79.292969 168.664062 79.550781 L 170.796875 85.078125 C 170.898438 85.339844 170.578125 85.558594 170.371094 85.371094 L 159.324219 75.316406 C 159.320312 75.316406 159.316406 75.308594 159.3125 75.308594 L 151.460938 68.898438 C 151.296875 68.765625 151.347656 68.503906 151.550781 68.441406 C 156.949219 66.777344 162.535156 65.910156 168.125 65.855469 C 173.878906 65.800781 179.636719 66.609375 185.199219 68.304688 C 200.84375 73.074219 219.433594 85.503906 227.976562 116.746094 C 228.054688 117.023438 227.695312 117.203125 227.515625 116.980469 " fill-opacity="1" fill-rule="nonzero"/><path fill="#000000" d="M 251.855469 50.195312 L 226.441406 46.964844 C 226.132812 46.929688 225.980469 47.328125 226.234375 47.5 L 233.648438 52.539062 C 233.902344 52.710938 233.757812 53.109375 233.449219 53.074219 L 213.617188 50.953125 C 213.296875 50.917969 213.160156 51.347656 213.441406 51.503906 L 221.175781 55.769531 C 221.457031 55.925781 221.320312 56.355469 221 56.320312 L 202.683594 54.21875 C 202.390625 54.183594 202.234375 54.554688 202.46875 54.742188 L 210.3125 60.960938 C 210.554688 61.15625 210.371094 61.546875 210.0625 61.480469 L 193.046875 57.78125 C 192.730469 57.710938 192.550781 58.128906 192.816406 58.3125 L 198.476562 62.15625 C 198.730469 62.328125 198.582031 62.726562 198.28125 62.691406 L 183.625 61.070312 C 183.300781 61.03125 183.167969 61.46875 183.453125 61.621094 L 189.507812 64.789062 C 189.777344 64.929688 189.683594 65.335938 189.382812 65.34375 L 175.6875 65.773438 C 175.375 65.785156 175.289062 66.207031 175.574219 66.335938 L 181.605469 69.082031 C 181.890625 69.210938 181.808594 69.632812 181.496094 69.640625 L 164.804688 70.257812 C 164.796875 70.257812 164.792969 70.257812 164.789062 70.257812 L 153.5 71.28125 C 153.265625 71.304688 153.101562 71.054688 153.210938 70.847656 C 156.214844 65.304688 159.992188 60.242188 164.410156 55.832031 C 168.957031 51.292969 174.183594 47.433594 179.949219 44.4375 C 196.167969 36.015625 220.738281 31.398438 252.042969 49.648438 C 252.316406 49.8125 252.171875 50.238281 251.855469 50.195312 " fill-opacity="1" fill-rule="nonzero"/><path fill="#000000" d="M 212.195312 -9.683594 L 191.367188 5.015625 C 191.113281 5.195312 191.273438 5.589844 191.578125 5.546875 L 200.410156 4.265625 C 200.714844 4.222656 200.871094 4.609375 200.625 4.792969 L 184.636719 16.558594 C 184.378906 16.75 184.570312 17.15625 184.882812 17.082031 L 193.429688 15.015625 C 193.742188 14.941406 193.929688 15.351562 193.671875 15.539062 L 178.8125 26.296875 C 178.574219 26.46875 178.710938 26.847656 179.007812 26.828125 L 188.953125 26.128906 C 189.261719 26.105469 189.390625 26.515625 189.121094 26.671875 L 174.140625 35.390625 C 173.859375 35.550781 174.011719 35.976562 174.328125 35.929688 L 181.070312 34.949219 C 181.375 34.90625 181.535156 35.296875 181.289062 35.476562 L 169.4375 44.128906 C 169.175781 44.320312 169.371094 44.734375 169.683594 44.648438 L 176.261719 42.910156 C 176.554688 42.832031 176.757812 43.191406 176.542969 43.402344 L 166.78125 52.917969 C 166.558594 53.132812 166.78125 53.5 167.074219 53.402344 L 173.351562 51.367188 C 173.648438 51.269531 173.871094 51.636719 173.648438 51.851562 L 161.8125 63.519531 C 161.808594 63.523438 161.804688 63.527344 161.800781 63.527344 L 154.203125 71.863281 C 154.046875 72.039062 153.757812 71.964844 153.699219 71.738281 C 152.171875 65.652344 151.535156 59.402344 151.804688 53.191406 C 152.082031 46.804688 153.320312 40.464844 155.539062 34.394531 C 161.769531 17.316406 176.695312 -2.578125 211.964844 -10.210938 C 212.277344 -10.277344 212.457031 -9.867188 212.195312 -9.683594 " fill-opacity="1" fill-rule="nonzero"/><path fill="#000000" d="M 189.507812 142.679688 L 173.183594 126.605469 C 172.984375 126.414062 173.183594 126.082031 173.445312 126.167969 L 181.09375 128.59375 C 181.355469 128.679688 181.554688 128.355469 181.359375 128.160156 L 168.902344 115.394531 C 168.703125 115.1875 168.929688 114.855469 169.195312 114.96875 L 176.472656 118.042969 C 176.738281 118.152344 176.96875 117.820312 176.765625 117.613281 L 165.160156 105.90625 C 164.976562 105.71875 165.152344 105.402344 165.410156 105.464844 L 174.128906 107.535156 C 174.402344 107.601562 174.574219 107.253906 174.359375 107.078125 L 162.34375 97.164062 C 162.121094 96.980469 162.316406 96.621094 162.59375 96.707031 L 168.429688 98.5625 C 168.691406 98.648438 168.890625 98.324219 168.695312 98.125 L 159.453125 88.726562 C 159.25 88.515625 159.484375 88.179688 159.75 88.300781 L 165.328125 90.804688 C 165.574219 90.914062 165.808594 90.625 165.648438 90.40625 L 158.382812 80.546875 C 158.21875 80.324219 158.46875 80.027344 158.714844 80.160156 L 163.984375 82.882812 C 164.230469 83.007812 164.484375 82.714844 164.320312 82.492188 L 155.527344 70.417969 C 155.523438 70.417969 155.519531 70.410156 155.519531 70.410156 L 150 61.910156 C 149.886719 61.734375 149.617188 61.757812 149.535156 61.949219 C 147.289062 67.125 145.8125 72.574219 145.144531 78.117188 C 144.457031 83.820312 144.628906 89.628906 145.703125 95.332031 C 148.734375 111.386719 159.0625 131.203125 189.222656 143.113281 C 189.488281 143.21875 189.710938 142.882812 189.507812 142.679688 " fill-opacity="1" fill-rule="nonzero"/><path fill="#000000" d="M 120.363281 159.507812 L 119.9375 133.925781 C 119.933594 133.617188 120.347656 133.507812 120.492188 133.785156 L 124.691406 141.691406 C 124.835938 141.964844 125.246094 141.863281 125.246094 141.558594 L 125.3125 121.636719 C 125.316406 121.316406 125.757812 121.226562 125.882812 121.523438 L 129.277344 129.667969 C 129.402344 129.964844 129.847656 129.875 129.84375 129.550781 L 129.765625 111.144531 C 129.761719 110.847656 130.152344 110.734375 130.308594 110.984375 L 135.640625 119.453125 C 135.808594 119.71875 136.21875 119.574219 136.183594 119.265625 L 134.371094 101.96875 C 134.335938 101.648438 134.773438 101.511719 134.921875 101.800781 L 138.125 107.835938 C 138.269531 108.109375 138.683594 108.007812 138.683594 107.699219 L 138.675781 92.976562 C 138.675781 92.652344 139.128906 92.566406 139.246094 92.867188 L 141.734375 99.222656 C 141.84375 99.507812 142.257812 99.460938 142.300781 99.160156 L 144.230469 85.613281 C 144.273438 85.308594 144.707031 85.265625 144.804688 85.5625 L 146.871094 91.851562 C 146.96875 92.148438 147.398438 92.109375 147.445312 91.804688 L 149.890625 75.304688 C 149.890625 75.296875 149.890625 75.292969 149.890625 75.289062 L 152.148438 64.195312 C 152.199219 63.964844 151.964844 63.777344 151.75 63.863281 C 145.902344 66.234375 140.449219 69.429688 135.574219 73.328125 C 130.554688 77.34375 126.140625 82.105469 122.527344 87.503906 C 112.367188 102.675781 105.074219 126.558594 119.796875 159.628906 C 119.929688 159.925781 120.367188 159.828125 120.363281 159.507812 " fill-opacity="1" fill-rule="nonzero"/><path fill="#000000" d="M 65.121094 113.566406 L 82.039062 94.503906 C 82.246094 94.273438 82.621094 94.476562 82.542969 94.773438 L 80.296875 103.398438 C 80.222656 103.695312 80.589844 103.894531 80.796875 103.671875 L 94.265625 89.09375 C 94.484375 88.859375 94.867188 89.09375 94.757812 89.394531 L 91.765625 97.648438 C 91.65625 97.953125 92.042969 98.1875 92.257812 97.945312 L 104.597656 84.378906 C 104.796875 84.164062 105.15625 84.339844 105.105469 84.628906 L 103.316406 94.425781 C 103.257812 94.734375 103.65625 94.902344 103.839844 94.65625 L 114.160156 80.742188 C 114.351562 80.480469 114.761719 80.675781 114.679688 80.988281 L 112.964844 87.574219 C 112.886719 87.871094 113.257812 88.070312 113.464844 87.84375 L 123.378906 77.03125 C 123.597656 76.792969 123.984375 77.03125 123.867188 77.335938 L 121.410156 83.671875 C 121.300781 83.953125 121.636719 84.199219 121.871094 84.007812 L 132.414062 75.359375 C 132.652344 75.164062 132.996094 75.425781 132.867188 75.707031 L 130.148438 81.714844 C 130.023438 81.996094 130.359375 82.257812 130.601562 82.0625 L 143.511719 71.59375 C 143.515625 71.589844 143.519531 71.585938 143.523438 71.585938 L 152.652344 64.957031 C 152.84375 64.820312 152.804688 64.523438 152.582031 64.445312 C 146.691406 62.257812 140.542969 60.941406 134.332031 60.527344 C 127.945312 60.101562 121.496094 60.632812 115.210938 62.167969 C 97.53125 66.480469 76.089844 79.109375 64.625 113.277344 C 64.519531 113.582031 64.910156 113.804688 65.121094 113.566406 " fill-opacity="1" fill-rule="nonzero"/><path fill="#000000" d="M 137.894531 -1.105469 L 135.515625 17.261719 C 135.488281 17.484375 135.777344 17.59375 135.902344 17.410156 L 139.566406 12.058594 C 139.691406 11.875 139.976562 11.980469 139.953125 12.203125 L 138.386719 26.535156 C 138.359375 26.765625 138.671875 26.867188 138.785156 26.664062 L 141.886719 21.078125 C 142 20.875 142.3125 20.980469 142.285156 21.210938 L 140.734375 34.445312 C 140.710938 34.660156 140.980469 34.769531 141.113281 34.601562 L 145.636719 28.941406 C 145.777344 28.765625 146.058594 28.898438 146.011719 29.121094 L 143.304688 41.417969 C 143.253906 41.644531 143.554688 41.777344 143.6875 41.582031 L 146.480469 37.496094 C 146.609375 37.3125 146.894531 37.421875 146.871094 37.640625 L 145.671875 48.234375 C 145.644531 48.46875 145.960938 48.5625 146.070312 48.359375 L 148.378906 43.984375 C 148.480469 43.789062 148.773438 43.859375 148.777344 44.078125 L 149.070312 53.976562 C 149.078125 54.203125 149.382812 54.265625 149.476562 54.058594 L 151.476562 49.703125 C 151.570312 49.5 151.875 49.558594 151.882812 49.785156 L 152.304688 61.851562 C 152.304688 61.855469 152.304688 61.859375 152.304688 61.863281 L 153.027344 70.027344 C 153.042969 70.195312 152.863281 70.3125 152.714844 70.234375 C 148.699219 68.050781 145.039062 65.316406 141.847656 62.113281 C 138.5625 58.820312 135.773438 55.035156 133.613281 50.867188 C 127.53125 39.125 124.222656 21.355469 137.5 -1.238281 C 137.617188 -1.441406 137.925781 -1.335938 137.894531 -1.105469 " fill-opacity="1" fill-rule="nonzero"/><path fill="#000000" d="M 269.019531 230.917969 L 284.066406 219.886719 C 284.25 219.753906 284.128906 219.464844 283.90625 219.503906 L 277.460938 220.558594 C 277.238281 220.59375 277.117188 220.3125 277.296875 220.175781 L 288.835938 211.355469 C 289.023438 211.210938 288.878906 210.917969 288.652344 210.976562 L 282.425781 212.601562 C 282.199219 212.660156 282.054688 212.359375 282.242188 212.21875 L 292.96875 204.152344 C 293.144531 204.023438 293.039062 203.75 292.824219 203.769531 L 285.554688 204.410156 C 285.328125 204.429688 285.226562 204.132812 285.421875 204.015625 L 296.269531 197.441406 C 296.472656 197.316406 296.355469 197.003906 296.125 197.046875 L 291.203125 197.851562 C 290.980469 197.886719 290.859375 197.601562 291.039062 197.46875 L 299.59375 190.980469 C 299.785156 190.839844 299.636719 190.539062 299.40625 190.601562 L 294.617188 191.964844 C 294.40625 192.027344 294.253906 191.765625 294.40625 191.605469 L 301.421875 184.519531 C 301.582031 184.355469 301.414062 184.089844 301.199219 184.164062 L 296.636719 185.738281 C 296.421875 185.8125 296.253906 185.546875 296.410156 185.386719 L 304.917969 176.695312 C 304.921875 176.691406 304.925781 176.6875 304.925781 176.6875 L 310.375 170.488281 C 310.488281 170.359375 310.699219 170.40625 310.742188 170.574219 C 311.945312 175.003906 312.492188 179.574219 312.378906 184.117188 C 312.257812 188.792969 311.4375 193.453125 309.894531 197.921875 C 305.5625 210.5 294.902344 225.253906 269.199219 231.300781 C 268.972656 231.355469 268.832031 231.058594 269.019531 230.917969 " fill-opacity="1" fill-rule="nonzero"/><path fill="#000000" d="M 322.746094 252.605469 L 326.105469 232.046875 C 326.144531 231.796875 325.824219 231.664062 325.671875 231.867188 L 321.355469 237.746094 C 321.210938 237.945312 320.890625 237.816406 320.925781 237.570312 L 323.21875 221.511719 C 323.257812 221.25 322.914062 221.132812 322.777344 221.355469 L 319.082031 227.515625 C 318.945312 227.742188 318.597656 227.613281 318.636719 227.359375 L 320.871094 212.535156 C 320.910156 212.296875 320.609375 212.160156 320.453125 212.34375 L 315.15625 218.535156 C 314.996094 218.730469 314.679688 218.566406 314.746094 218.324219 L 318.242188 204.597656 C 318.308594 204.34375 317.976562 204.1875 317.816406 204.398438 L 314.523438 208.890625 C 314.375 209.089844 314.058594 208.960938 314.09375 208.710938 L 315.835938 196.847656 C 315.875 196.585938 315.519531 196.464844 315.386719 196.695312 L 312.636719 201.527344 C 312.511719 201.738281 312.1875 201.652344 312.1875 201.40625 L 312.230469 190.265625 C 312.230469 190.011719 311.886719 189.929688 311.773438 190.15625 L 309.363281 194.980469 C 309.25 195.207031 308.910156 195.128906 308.910156 194.875 L 308.886719 181.289062 C 308.886719 181.289062 308.882812 181.28125 308.882812 181.28125 L 308.375 172.074219 C 308.363281 171.882812 308.570312 171.757812 308.734375 171.855469 C 313.167969 174.457031 317.183594 177.667969 320.652344 181.382812 C 324.222656 185.210938 327.21875 189.566406 329.492188 194.335938 C 335.890625 207.757812 338.949219 227.859375 323.1875 252.773438 C 323.046875 252.992188 322.703125 252.863281 322.746094 252.605469 " fill-opacity="1" fill-rule="nonzero"/><path fill="#000000" d="M 372.667969 222.085938 L 361.289062 204.738281 C 361.152344 204.53125 360.820312 204.644531 360.851562 204.894531 L 361.640625 212.109375 C 361.671875 212.359375 361.34375 212.476562 361.203125 212.273438 L 352.078125 198.945312 C 351.925781 198.730469 351.59375 198.871094 351.644531 199.128906 L 353.082031 206.132812 C 353.132812 206.386719 352.796875 206.53125 352.652344 206.3125 L 344.304688 193.929688 C 344.171875 193.730469 343.859375 193.832031 343.871094 194.074219 L 344.152344 202.175781 C 344.160156 202.429688 343.828125 202.519531 343.707031 202.300781 L 337.03125 189.875 C 336.90625 189.640625 336.554688 189.75 336.585938 190.011719 L 337.1875 195.519531 C 337.214844 195.765625 336.890625 195.886719 336.753906 195.679688 L 330.042969 185.800781 C 329.894531 185.582031 329.554688 185.730469 329.609375 185.988281 L 330.84375 191.386719 C 330.898438 191.625 330.597656 191.777344 330.433594 191.597656 L 322.957031 183.394531 C 322.789062 183.207031 322.484375 183.375 322.550781 183.617188 L 324.035156 188.777344 C 324.101562 189.019531 323.800781 189.191406 323.628906 189.003906 L 314.460938 179.050781 C 314.457031 179.046875 314.457031 179.042969 314.453125 179.042969 L 307.878906 172.628906 C 307.742188 172.5 307.8125 172.261719 307.996094 172.226562 C 313 171.160156 318.113281 170.816406 323.160156 171.214844 C 328.359375 171.625 333.492188 172.8125 338.375 174.785156 C 352.113281 180.339844 367.898438 193.035156 373.105469 221.914062 C 373.152344 222.167969 372.8125 222.308594 372.667969 222.085938 " fill-opacity="1" fill-rule="nonzero"/><path fill="#000000" d="M 249.164062 199.296875 L 262.730469 186.488281 C 262.890625 186.335938 263.152344 186.507812 263.078125 186.71875 L 260.882812 192.863281 C 260.808594 193.074219 261.0625 193.246094 261.230469 193.09375 L 271.988281 183.335938 C 272.164062 183.179688 272.425781 183.371094 272.328125 183.585938 L 269.613281 189.410156 C 269.515625 189.621094 269.78125 189.816406 269.953125 189.660156 L 279.824219 180.5625 C 279.984375 180.417969 280.238281 180.570312 280.179688 180.78125 L 278.242188 187.804688 C 278.179688 188.027344 278.460938 188.171875 278.609375 188.007812 L 287.03125 178.527344 C 287.1875 178.347656 287.472656 178.515625 287.390625 178.738281 L 285.71875 183.429688 C 285.640625 183.640625 285.898438 183.8125 286.066406 183.660156 L 293.992188 176.417969 C 294.164062 176.257812 294.433594 176.457031 294.328125 176.667969 L 292.125 181.128906 C 292.03125 181.328125 292.257812 181.527344 292.441406 181.402344 L 300.683594 175.78125 C 300.871094 175.652344 301.105469 175.863281 300.992188 176.0625 L 298.621094 180.265625 C 298.515625 180.460938 298.746094 180.675781 298.929688 180.546875 L 309.019531 173.75 C 309.019531 173.746094 309.023438 173.746094 309.027344 173.742188 L 316.109375 169.5 C 316.257812 169.410156 316.25 169.195312 316.09375 169.121094 C 311.9375 167.148438 307.539062 165.792969 303.042969 165.089844 C 298.410156 164.371094 293.679688 164.339844 288.996094 165.054688 C 275.832031 167.058594 259.386719 174.882812 248.820312 199.050781 C 248.726562 199.269531 248.996094 199.457031 249.164062 199.296875 " fill-opacity="1" fill-rule="nonzero"/><path fill="#000000" d="M 237.429688 142.625 L 258.289062 143.015625 C 258.539062 143.015625 258.613281 143.359375 258.386719 143.46875 L 251.820312 146.65625 C 251.597656 146.761719 251.667969 147.097656 251.917969 147.109375 L 268.148438 147.734375 C 268.410156 147.746094 268.46875 148.105469 268.222656 148.195312 L 261.492188 150.722656 C 261.246094 150.816406 261.304688 151.179688 261.566406 151.1875 L 276.570312 151.648438 C 276.8125 151.65625 276.890625 151.976562 276.683594 152.09375 L 269.632812 156.1875 C 269.410156 156.316406 269.515625 156.652344 269.765625 156.636719 L 283.917969 155.652344 C 284.179688 155.636719 284.273438 155.992188 284.035156 156.109375 L 279.023438 158.539062 C 278.800781 158.648438 278.871094 158.988281 279.121094 158.996094 L 291.121094 159.410156 C 291.382812 159.417969 291.441406 159.789062 291.191406 159.878906 L 285.941406 161.714844 C 285.707031 161.796875 285.734375 162.132812 285.976562 162.179688 L 296.957031 164.136719 C 297.210938 164.175781 297.230469 164.53125 296.984375 164.601562 L 291.800781 166.101562 C 291.554688 166.175781 291.574219 166.523438 291.824219 166.566406 L 305.199219 169.027344 C 305.203125 169.027344 305.210938 169.027344 305.210938 169.027344 L 314.1875 171.183594 C 314.375 171.226562 314.535156 171.042969 314.46875 170.867188 C 312.703125 166.046875 310.257812 161.523438 307.21875 157.449219 C 304.089844 153.257812 300.335938 149.535156 296.042969 146.445312 C 283.964844 137.75 264.714844 131.140625 237.34375 142.164062 C 237.101562 142.261719 237.167969 142.621094 237.429688 142.625 " fill-opacity="1" fill-rule="nonzero"/><path fill="#000000" d="M 276.445312 99.046875 L 291.492188 113.339844 C 291.675781 113.515625 291.5 113.816406 291.261719 113.742188 L 284.292969 111.671875 C 284.054688 111.601562 283.882812 111.894531 284.058594 112.070312 L 295.550781 123.429688 C 295.734375 123.613281 295.535156 123.921875 295.292969 123.820312 L 288.652344 121.15625 C 288.40625 121.054688 288.207031 121.367188 288.394531 121.546875 L 299.097656 131.960938 C 299.269531 132.132812 299.113281 132.417969 298.878906 132.367188 L 290.945312 130.632812 C 290.699219 130.578125 290.550781 130.894531 290.746094 131.050781 L 301.792969 139.835938 C 301.996094 140 301.824219 140.328125 301.574219 140.253906 L 296.257812 138.667969 C 296.015625 138.597656 295.84375 138.894531 296.019531 139.066406 L 304.546875 147.433594 C 304.738281 147.617188 304.527344 147.925781 304.289062 147.824219 L 299.195312 145.644531 C 298.964844 145.550781 298.761719 145.816406 298.910156 146.007812 L 305.652344 154.824219 C 305.804688 155.023438 305.582031 155.296875 305.355469 155.183594 L 300.539062 152.804688 C 300.316406 152.691406 300.089844 152.960938 300.246094 153.160156 L 308.40625 163.949219 C 308.410156 163.953125 308.410156 163.957031 308.414062 163.960938 L 313.554688 171.570312 C 313.65625 171.726562 313.898438 171.703125 313.972656 171.527344 C 315.921875 166.804688 317.171875 161.84375 317.683594 156.808594 C 318.214844 151.628906 317.964844 146.375 316.894531 141.222656 C 313.886719 126.730469 304.207031 108.945312 276.691406 98.652344 C 276.449219 98.558594 276.253906 98.867188 276.445312 99.046875 " fill-opacity="1" fill-rule="nonzero"/><path fill="#000000" d="M 367.804688 161.464844 L 352.910156 159.003906 C 352.726562 158.972656 352.628906 159.203125 352.777344 159.316406 L 357.03125 162.445312 C 357.175781 162.550781 357.085938 162.78125 356.902344 162.753906 L 345.269531 161.070312 C 345.082031 161.042969 344.988281 161.292969 345.152344 161.390625 L 349.613281 164.074219 C 349.777344 164.167969 349.683594 164.421875 349.496094 164.394531 L 338.757812 162.753906 C 338.582031 162.726562 338.484375 162.941406 338.617188 163.058594 L 343.097656 166.894531 C 343.238281 167.015625 343.121094 167.238281 342.945312 167.191406 L 333 164.640625 C 332.816406 164.59375 332.699219 164.835938 332.855469 164.949219 L 336.105469 167.335938 C 336.25 167.445312 336.152344 167.675781 335.972656 167.648438 L 327.378906 166.371094 C 327.191406 166.34375 327.101562 166.597656 327.265625 166.695312 L 330.765625 168.691406 C 330.917969 168.78125 330.855469 169.019531 330.675781 169.015625 L 322.601562 168.96875 C 322.417969 168.96875 322.359375 169.214844 322.519531 169.296875 L 326.015625 171.046875 C 326.179688 171.128906 326.121094 171.375 325.9375 171.375 L 316.089844 171.375 C 316.089844 171.375 316.085938 171.375 316.082031 171.375 L 309.410156 171.726562 C 309.273438 171.734375 309.179688 171.585938 309.25 171.464844 C 311.144531 168.265625 313.476562 165.367188 316.175781 162.867188 C 318.953125 160.289062 322.117188 158.132812 325.578125 156.496094 C 335.316406 151.890625 349.894531 149.707031 367.925781 161.144531 C 368.085938 161.246094 367.992188 161.496094 367.804688 161.464844 " fill-opacity="1" fill-rule="nonzero"/><path fill="#000000" d="M 309.921875 178.355469 C 309.921875 178.355469 309.777344 178.425781 309.496094 178.5625 C 309.363281 178.628906 309.195312 178.714844 309 178.8125 C 308.792969 178.917969 308.554688 179.042969 308.285156 179.183594 C 307.203125 179.75 305.613281 180.605469 303.628906 181.789062 C 301.640625 182.957031 299.265625 184.453125 296.597656 186.253906 C 293.921875 188.046875 290.992188 190.203125 287.859375 192.617188 C 287.089844 193.238281 286.300781 193.871094 285.5 194.519531 C 285.101562 194.839844 284.695312 195.167969 284.289062 195.496094 C 283.894531 195.835938 283.492188 196.179688 283.085938 196.523438 C 282.277344 197.21875 281.457031 197.921875 280.621094 198.636719 C 279.808594 199.378906 278.980469 200.128906 278.148438 200.890625 C 277.726562 201.269531 277.308594 201.652344 276.886719 202.039062 C 276.472656 202.4375 276.0625 202.839844 275.648438 203.242188 C 274.816406 204.050781 273.976562 204.863281 273.125 205.6875 C 272.304688 206.542969 271.476562 207.402344 270.640625 208.273438 C 270.21875 208.707031 269.796875 209.144531 269.375 209.582031 C 268.96875 210.035156 268.5625 210.488281 268.152344 210.945312 C 267.332031 211.859375 266.507812 212.777344 265.675781 213.703125 C 264.863281 214.648438 264.074219 215.621094 263.265625 216.585938 C 261.617188 218.488281 260.121094 220.554688 258.542969 222.574219 C 258.144531 223.074219 257.777344 223.601562 257.40625 224.125 C 257.035156 224.652344 256.664062 225.175781 256.292969 225.703125 L 255.179688 227.28125 C 254.804688 227.808594 254.421875 228.328125 254.082031 228.882812 C 253.382812 229.964844 252.679688 231.054688 251.980469 232.144531 L 250.929688 233.773438 L 249.949219 235.453125 L 247.988281 238.800781 C 247.648438 239.347656 247.363281 239.925781 247.0625 240.496094 L 246.164062 242.203125 C 245.570312 243.347656 244.957031 244.46875 244.382812 245.613281 C 243.84375 246.769531 243.304688 247.921875 242.765625 249.070312 C 242.496094 249.644531 242.230469 250.214844 241.964844 250.789062 L 241.5625 251.640625 L 241.203125 252.515625 C 240.726562 253.675781 240.253906 254.828125 239.785156 255.976562 C 238.789062 258.246094 238.035156 260.582031 237.222656 262.839844 C 236.371094 265.085938 235.75 267.371094 235.078125 269.582031 C 234.753906 270.691406 234.398438 271.773438 234.117188 272.867188 C 233.851562 273.960938 233.585938 275.046875 233.328125 276.117188 C 233.066406 277.183594 232.808594 278.234375 232.554688 279.269531 C 232.492188 279.527344 232.429688 279.785156 232.367188 280.042969 C 232.316406 280.304688 232.269531 280.5625 232.21875 280.820312 C 232.121094 281.335938 232.023438 281.851562 231.929688 282.359375 C 231.546875 284.390625 231.148438 286.34375 230.824219 288.230469 C 230.5625 290.128906 230.3125 291.949219 230.074219 293.679688 C 229.957031 294.542969 229.839844 295.382812 229.730469 296.203125 C 229.660156 297.027344 229.589844 297.828125 229.523438 298.605469 C 229.390625 300.15625 229.265625 301.605469 229.152344 302.945312 C 229.097656 303.613281 229.03125 304.253906 228.992188 304.871094 C 228.972656 305.492188 228.949219 306.082031 228.929688 306.636719 C 228.777344 311.105469 228.6875 313.652344 228.6875 313.652344 L 207.738281 312.472656 C 207.738281 312.472656 208.089844 309.644531 208.707031 304.691406 C 208.78125 304.074219 208.863281 303.421875 208.949219 302.738281 C 209.050781 302.058594 209.1875 301.347656 209.316406 300.601562 C 209.578125 299.125 209.859375 297.519531 210.160156 295.808594 C 210.3125 294.957031 210.46875 294.074219 210.632812 293.167969 C 210.835938 292.265625 211.046875 291.335938 211.261719 290.386719 C 211.699219 288.488281 212.160156 286.492188 212.636719 284.410156 C 213.191406 282.339844 213.820312 280.199219 214.445312 277.984375 C 214.605469 277.433594 214.765625 276.875 214.921875 276.3125 C 215.003906 276.03125 215.082031 275.75 215.164062 275.464844 C 215.261719 275.183594 215.355469 274.902344 215.449219 274.621094 C 215.835938 273.496094 216.222656 272.351562 216.617188 271.191406 C 217.011719 270.035156 217.410156 268.863281 217.820312 267.675781 C 218.238281 266.492188 218.738281 265.320312 219.203125 264.125 C 220.164062 261.742188 221.082031 259.289062 222.242188 256.882812 C 223.359375 254.46875 224.429688 251.980469 225.738281 249.570312 C 226.367188 248.359375 227.003906 247.136719 227.636719 245.90625 L 228.117188 244.988281 L 228.640625 244.085938 C 228.992188 243.488281 229.339844 242.882812 229.691406 242.28125 C 230.390625 241.078125 231.09375 239.871094 231.796875 238.65625 C 232.535156 237.464844 233.3125 236.292969 234.070312 235.109375 L 235.214844 233.332031 C 235.601562 232.742188 235.972656 232.144531 236.390625 231.578125 C 237.207031 230.429688 238.027344 229.277344 238.84375 228.128906 L 240.070312 226.410156 L 241.363281 224.738281 C 242.226562 223.628906 243.089844 222.523438 243.949219 221.417969 C 244.371094 220.859375 244.832031 220.332031 245.28125 219.796875 L 246.636719 218.203125 C 247.089844 217.671875 247.539062 217.144531 247.988281 216.617188 C 248.433594 216.085938 248.882812 215.558594 249.355469 215.054688 C 251.238281 213.035156 253.042969 210.980469 254.980469 209.097656 C 255.933594 208.140625 256.871094 207.183594 257.824219 206.253906 C 258.796875 205.347656 259.757812 204.445312 260.714844 203.550781 C 261.195312 203.109375 261.671875 202.664062 262.148438 202.222656 C 262.636719 201.796875 263.121094 201.375 263.609375 200.953125 C 264.574219 200.109375 265.535156 199.28125 266.484375 198.453125 C 267.460938 197.664062 268.421875 196.878906 269.375 196.105469 C 269.851562 195.71875 270.328125 195.335938 270.796875 194.953125 C 271.277344 194.585938 271.757812 194.222656 272.234375 193.863281 C 273.183594 193.136719 274.117188 192.425781 275.042969 191.726562 C 275.984375 191.050781 276.914062 190.390625 277.828125 189.738281 C 278.285156 189.410156 278.738281 189.089844 279.1875 188.769531 C 279.644531 188.464844 280.097656 188.15625 280.546875 187.855469 C 281.449219 187.257812 282.332031 186.667969 283.195312 186.089844 C 286.699219 183.847656 289.949219 181.875 292.90625 180.253906 C 295.863281 178.617188 298.480469 177.277344 300.675781 176.242188 C 302.859375 175.1875 304.617188 174.433594 305.832031 173.925781 C 306.140625 173.800781 306.410156 173.6875 306.644531 173.59375 C 306.882812 173.496094 307.09375 173.417969 307.257812 173.347656 C 307.574219 173.230469 307.742188 173.167969 307.742188 173.167969 L 309.921875 178.355469 " fill-opacity="1" fill-rule="nonzero"/><path fill="#000000" d="M 160.867188 75.3125 C 160.867188 75.3125 160.925781 75.339844 161.039062 75.398438 C 161.167969 75.464844 161.363281 75.5625 161.621094 75.695312 C 162.085938 75.945312 162.765625 76.308594 163.601562 76.820312 C 165.28125 77.832031 167.664062 79.382812 170.464844 81.628906 C 173.265625 83.871094 176.503906 86.792969 179.871094 90.476562 C 183.21875 94.175781 186.671875 98.648438 189.914062 103.867188 C 193.148438 109.085938 196.1875 115.050781 198.679688 121.628906 C 201.1875 128.203125 203.214844 135.359375 204.648438 142.871094 C 206.085938 150.386719 206.9375 158.25 207.253906 166.238281 C 207.292969 168.234375 207.328125 170.238281 207.367188 172.25 C 207.398438 174.230469 207.382812 176.128906 207.394531 178.078125 C 207.414062 181.941406 207.4375 185.820312 207.460938 189.695312 C 207.597656 205.195312 207.925781 220.660156 208.730469 234.988281 C 209.136719 242.15625 209.664062 249.03125 210.347656 255.46875 C 211.023438 261.90625 211.878906 267.898438 212.898438 273.269531 C 213.910156 278.640625 215.09375 283.394531 216.359375 287.371094 C 217.621094 291.351562 218.972656 294.546875 220.210938 296.941406 C 221.453125 299.34375 222.558594 300.960938 223.316406 302.023438 C 224.097656 303.027344 224.515625 303.558594 224.515625 303.558594 L 203.828125 319.09375 C 203.828125 319.09375 203.648438 318.832031 203.304688 318.320312 C 202.972656 317.800781 202.441406 317.046875 201.828125 316.042969 C 200.617188 314.035156 198.964844 311.054688 197.378906 307.25 C 195.792969 303.449219 194.300781 298.847656 193.097656 293.671875 C 191.882812 288.496094 190.941406 282.746094 190.269531 276.566406 C 188.90625 264.207031 188.652344 250.175781 188.960938 235.328125 C 189.277344 220.480469 190.167969 204.816406 191.238281 189.207031 C 191.519531 185.308594 191.800781 181.40625 192.078125 177.523438 C 192.214844 175.601562 192.382812 173.632812 192.5 171.761719 C 192.609375 169.914062 192.714844 168.074219 192.824219 166.242188 C 193.105469 158.910156 192.882812 151.699219 192.109375 144.789062 C 191.34375 137.878906 190.019531 131.28125 188.21875 125.191406 C 186.4375 119.089844 184.125 113.527344 181.578125 108.609375 C 179.03125 103.6875 176.238281 99.417969 173.480469 95.855469 C 170.707031 92.300781 167.992188 89.4375 165.636719 87.230469 C 163.28125 85.023438 161.273438 83.484375 159.898438 82.5 C 159.210938 82.003906 158.675781 81.664062 158.328125 81.441406 C 158.171875 81.34375 158.054688 81.269531 157.976562 81.21875 C 157.878906 81.164062 157.828125 81.136719 157.828125 81.136719 L 160.867188 75.3125 " fill-opacity="1" fill-rule="nonzero"/><path fill="#000000" d="M 115.570312 316.539062 C 115.570312 316.539062 121.050781 313.253906 150.109375 309.96875 C 179.164062 306.683594 157.78125 285.878906 201.09375 300.664062 C 244.402344 315.441406 230.207031 289.710938 263.898438 300.664062 C 297.582031 311.609375 368.722656 316.539062 313.691406 320.917969 C 258.65625 325.296875 70.613281 334.605469 115.570312 316.539062 " fill-opacity="1" fill-rule="nonzero"/><g fill="#ef6400" fill-opacity="1"><g transform="translate(271.858827, 169.76485)"><g><path d="M 0.1875 0 L 0.1875 -0.265625 L 1.46875 -1.5 C 1.695312 -1.726562 1.851562 -1.910156 1.9375 -2.046875 C 2.019531 -2.179688 2.0625 -2.320312 2.0625 -2.46875 C 2.0625 -2.664062 1.988281 -2.828125 1.84375 -2.953125 C 1.695312 -3.078125 1.507812 -3.140625 1.28125 -3.140625 C 1.113281 -3.140625 0.957031 -3.109375 0.8125 -3.046875 C 0.664062 -2.984375 0.507812 -2.875 0.34375 -2.71875 L 0.125 -2.96875 C 0.3125 -3.132812 0.5 -3.253906 0.6875 -3.328125 C 0.882812 -3.410156 1.082031 -3.453125 1.28125 -3.453125 C 1.445312 -3.453125 1.597656 -3.425781 1.734375 -3.375 C 1.878906 -3.332031 2 -3.269531 2.09375 -3.1875 C 2.195312 -3.101562 2.273438 -3 2.328125 -2.875 C 2.378906 -2.757812 2.40625 -2.628906 2.40625 -2.484375 C 2.40625 -2.390625 2.394531 -2.296875 2.375 -2.203125 C 2.351562 -2.117188 2.316406 -2.03125 2.265625 -1.9375 C 2.210938 -1.851562 2.140625 -1.757812 2.046875 -1.65625 C 1.960938 -1.550781 1.847656 -1.429688 1.703125 -1.296875 L 0.671875 -0.3125 L 2.46875 -0.3125 L 2.46875 0 Z M 0.1875 0 "/></g></g></g><g fill="#ef6400" fill-opacity="1"><g transform="translate(274.496997, 169.76485)"><g><path d="M 1.609375 0.046875 C 1.398438 0.046875 1.210938 0.00390625 1.046875 -0.078125 C 0.878906 -0.160156 0.734375 -0.28125 0.609375 -0.4375 C 0.484375 -0.59375 0.382812 -0.78125 0.3125 -1 C 0.25 -1.21875 0.21875 -1.453125 0.21875 -1.703125 C 0.21875 -1.960938 0.25 -2.195312 0.3125 -2.40625 C 0.382812 -2.625 0.484375 -2.8125 0.609375 -2.96875 C 0.734375 -3.125 0.878906 -3.242188 1.046875 -3.328125 C 1.222656 -3.421875 1.410156 -3.46875 1.609375 -3.46875 C 1.816406 -3.46875 2.003906 -3.421875 2.171875 -3.328125 C 2.335938 -3.242188 2.484375 -3.125 2.609375 -2.96875 C 2.734375 -2.8125 2.828125 -2.625 2.890625 -2.40625 C 2.960938 -2.195312 3 -1.960938 3 -1.703125 C 3 -1.453125 2.960938 -1.21875 2.890625 -1 C 2.828125 -0.78125 2.734375 -0.59375 2.609375 -0.4375 C 2.484375 -0.28125 2.335938 -0.160156 2.171875 -0.078125 C 2.003906 0.00390625 1.816406 0.046875 1.609375 0.046875 Z M 1.609375 -0.265625 C 1.921875 -0.265625 2.171875 -0.394531 2.359375 -0.65625 C 2.546875 -0.914062 2.640625 -1.265625 2.640625 -1.703125 C 2.640625 -2.140625 2.546875 -2.488281 2.359375 -2.75 C 2.171875 -3.007812 1.921875 -3.140625 1.609375 -3.140625 C 1.296875 -3.140625 1.046875 -3.007812 0.859375 -2.75 C 0.671875 -2.488281 0.578125 -2.140625 0.578125 -1.703125 C 0.578125 -1.265625 0.671875 -0.914062 0.859375 -0.65625 C 1.046875 -0.394531 1.296875 -0.265625 1.609375 -0.265625 Z M 1.609375 -0.265625 "/></g></g></g><g fill="#ef6400" fill-opacity="1"><g transform="translate(277.714395, 169.76485)"><g><path d="M 0.1875 0 L 0.1875 -0.265625 L 1.46875 -1.5 C 1.695312 -1.726562 1.851562 -1.910156 1.9375 -2.046875 C 2.019531 -2.179688 2.0625 -2.320312 2.0625 -2.46875 C 2.0625 -2.664062 1.988281 -2.828125 1.84375 -2.953125 C 1.695312 -3.078125 1.507812 -3.140625 1.28125 -3.140625 C 1.113281 -3.140625 0.957031 -3.109375 0.8125 -3.046875 C 0.664062 -2.984375 0.507812 -2.875 0.34375 -2.71875 L 0.125 -2.96875 C 0.3125 -3.132812 0.5 -3.253906 0.6875 -3.328125 C 0.882812 -3.410156 1.082031 -3.453125 1.28125 -3.453125 C 1.445312 -3.453125 1.597656 -3.425781 1.734375 -3.375 C 1.878906 -3.332031 2 -3.269531 2.09375 -3.1875 C 2.195312 -3.101562 2.273438 -3 2.328125 -2.875 C 2.378906 -2.757812 2.40625 -2.628906 2.40625 -2.484375 C 2.40625 -2.390625 2.394531 -2.296875 2.375 -2.203125 C 2.351562 -2.117188 2.316406 -2.03125 2.265625 -1.9375 C 2.210938 -1.851562 2.140625 -1.757812 2.046875 -1.65625 C 1.960938 -1.550781 1.847656 -1.429688 1.703125 -1.296875 L 0.671875 -0.3125 L 2.46875 -0.3125 L 2.46875 0 Z M 0.1875 0 "/></g></g></g><g fill="#ef6400" fill-opacity="1"><g transform="translate(280.352564, 169.76485)"><g><path d="M 0.1875 0 L 0.1875 -0.265625 L 1.46875 -1.5 C 1.695312 -1.726562 1.851562 -1.910156 1.9375 -2.046875 C 2.019531 -2.179688 2.0625 -2.320312 2.0625 -2.46875 C 2.0625 -2.664062 1.988281 -2.828125 1.84375 -2.953125 C 1.695312 -3.078125 1.507812 -3.140625 1.28125 -3.140625 C 1.113281 -3.140625 0.957031 -3.109375 0.8125 -3.046875 C 0.664062 -2.984375 0.507812 -2.875 0.34375 -2.71875 L 0.125 -2.96875 C 0.3125 -3.132812 0.5 -3.253906 0.6875 -3.328125 C 0.882812 -3.410156 1.082031 -3.453125 1.28125 -3.453125 C 1.445312 -3.453125 1.597656 -3.425781 1.734375 -3.375 C 1.878906 -3.332031 2 -3.269531 2.09375 -3.1875 C 2.195312 -3.101562 2.273438 -3 2.328125 -2.875 C 2.378906 -2.757812 2.40625 -2.628906 2.40625 -2.484375 C 2.40625 -2.390625 2.394531 -2.296875 2.375 -2.203125 C 2.351562 -2.117188 2.316406 -2.03125 2.265625 -1.9375 C 2.210938 -1.851562 2.140625 -1.757812 2.046875 -1.65625 C 1.960938 -1.550781 1.847656 -1.429688 1.703125 -1.296875 L 0.671875 -0.3125 L 2.46875 -0.3125 L 2.46875 0 Z M 0.1875 0 "/></g></g></g></svg>